# WaveFront *.obj file (generated by CINEMA 4D)

v -441.5157470703125 -44.43841552734375 352.9774169921875
v -441.5157470703125 44.43841552734375 352.9774169921875
v -441.5157470703125 44.43841552734375 -352.9774169921875
v -441.5157470703125 -44.43841552734375 -352.9774169921875
v -370.67706298828125 -44.43841552734375 -423.81610107421875
v -370.67706298828125 44.43841552734375 -423.81610107421875
v 370.67706298828125 44.43841552734375 -423.81610107421875
v 370.67706298828125 -44.43841552734375 -423.81610107421875
v 441.5157470703125 -44.43841552734375 -352.9774169921875
v 441.5157470703125 44.43841552734375 -352.9774169921875
v 441.5157470703125 44.43841552734375 352.9774169921875
v 441.5157470703125 -44.43841552734375 352.9774169921875
v 370.67706298828125 -44.43841552734375 423.81610107421875
v 370.67706298828125 44.43841552734375 423.81610107421875
v -370.67706298828125 44.43841552734375 423.81610107421875
v -370.67706298828125 -44.43841552734375 423.81610107421875
v -432.46685791015625 -44.43841552734375 387.6204833984375
v -405.32012939453125 -44.43841552734375 414.7672119140625
v -432.46685791015625 44.43841552734375 387.6204833984375
v -405.32012939453125 44.43841552734375 414.7672119140625
v -432.46685791015625 44.43841552734375 -387.6204833984375
v -405.32012939453125 44.43841552734375 -414.7672119140625
v -432.46685791015625 -44.43841552734375 -387.6204833984375
v -405.32012939453125 -44.43841552734375 -414.7672119140625
v 405.32012939453125 44.43841552734375 -414.7672119140625
v 432.46685791015625 44.43841552734375 -387.6204833984375
v 405.32012939453125 -44.43841552734375 -414.7672119140625
v 432.46685791015625 -44.43841552734375 -387.6204833984375
v 432.46685791015625 44.43841552734375 387.6204833984375
v 405.32012939453125 44.43841552734375 414.7672119140625
v 432.46685791015625 -44.43841552734375 387.6204833984375
v 405.32012939453125 -44.43841552734375 414.7672119140625
# 32 vertices

vn 0 0 -1
vn 1 0 0
vn 0 0 1
vn -1 0 0
vn 0 1 0
vn 0 -1 0
vn -0.25272437930107 0 -0.96753829717636
vn -0.49726766347885 0 -0.86759716272354
vn 0.96753829717636 0 -0.25272437930107
vn 0.86759716272354 0 -0.49726766347885
vn 0.25272437930107 0 0.96753829717636
vn 0.49726766347885 0 0.86759716272354
vn -0.96753829717636 0 0.25272437930107
vn -0.86759722232819 0 0.49726760387421
vn -0.86759716272354 0 -0.49726766347885
vn -0.96753829717636 0 -0.25272437930107
vn 0.49726766347885 0 -0.86759716272354
vn 0.25272437930107 0 -0.96753829717636
vn 0.86759716272354 0 0.49726766347885
vn 0.96753829717636 0 0.25272437930107
vn -0.49726781249046 0 0.8675971031189
vn -0.25272473692894 0 0.96753823757172
# 22 normals

vt 0.20736712217331 0.01317167282104 0
vt 0.20736712217331 0.0381715297699 0
vt 0.23236709833145 0.0381715297699 0
vt 0.23236709833145 0.01317167282104 0
vt 0.06033205240965 0.27948307991028 0
vt 0.03159017860889 0.28699052333832 0
vt 0.00906770769507 0.30951309204102 0
vt 0.0015602420317 0.33825492858887 0
vt 0.26875001192093 0.01875007152557 0
vt 0.26875001192093 0.04375004768372 0
vt 0.29374998807907 0.04375004768372 0
vt 0.29374998807907 0.01875007152557 0
vt 0.06033205240965 0.98272716999054 0
vt 0.0015602420317 0.9239553809166 0
vt 0.67540192604065 0.98272716999054 0
vt 0.67540192604065 0.27948307991028 0
vt 0.00906770769507 0.95269721746445 0
vt 0.03159017860889 0.9752197265625 0
vt 0.73417365550995 0.9239553809166 0
vt 0.7041437625885 0.9752197265625 0
vt 0.72666621208191 0.95269721746445 0
vt 0.73417365550995 0.33825492858887 0
vt 0.72666621208191 0.30951309204102 0
vt 0.7041437625885 0.28699052333832 0
# 24 texture coordinates

o chessboard
usemtl chessboard
f 5/1/1 6/2/1 7/3/1 8/4/1
f 9/1/2 10/2/2 11/3/2 12/4/2
f 13/1/3 14/2/3 15/3/3 16/4/3
f 1/1/4 2/2/4 3/3/4 4/4/4
f 6/5/5 22/6/5 21/7/5 3/8/5 2/14/5 19/17/5 20/18/5 15/13/5 14/15/5 30/20/5 29/21/5 11/19/5 10/22/5 26/23/5 25/24/5 7/16/5
f 16/10/6 18/11/6 17/12/6 1/10/6 4/10/6 23/11/6 24/12/6 5/10/6 8/10/6 27/11/6 28/12/6 9/11/6 12/10/6 31/11/6 32/12/6 13/12/6
f 5/1/7 24/2/8 22/3/8 6/4/7
f 9/1/9 28/2/10 26/3/10 10/4/9
f 13/1/11 32/2/12 30/3/12 14/4/11
f 1/1/13 17/2/14 19/3/14 2/4/13
f 24/1/8 23/2/15 21/3/15 22/4/8
f 23/1/15 4/2/16 3/3/16 21/4/15
f 28/1/10 27/2/17 25/3/17 26/4/10
f 27/1/17 8/2/18 7/3/18 25/4/17
f 32/1/12 31/2/19 29/3/19 30/4/12
f 31/1/19 12/2/20 11/3/20 29/4/19
f 17/1/14 18/2/21 20/3/21 19/4/14
f 18/1/21 16/2/22 15/3/22 20/4/21

